<svg xmlns="http://www.w3.org/2000/svg" viewBox="0 0 512 512">
  <defs>
    <linearGradient id="g" x1="0" y1="0" x2="1" y2="1">
      <stop stop-color="#3b82f6" offset="0"/>
      <stop stop-color="#22c55e" offset="1"/>
    </linearGradient>
  </defs>
  <rect width="512" height="512" rx="96" fill="url(#g)"/>
  <circle cx="120" cy="120" r="36" fill="#fff" fill-opacity="0.16"/>
  <circle cx="400" cy="112" r="28" fill="#fff" fill-opacity="0.12"/>
  <circle cx="420" cy="380" r="40" fill="#fff" fill-opacity="0.08"/>
  <path d="M176 368h160c22 0 40-18 40-40s-18-40-40-40H204c-22 0-40-18-40-40s18-40 40-40h144" fill="none" stroke="#e2e8f0" stroke-width="26" stroke-linecap="round" stroke-linejoin="round" opacity="0.9"/>
  <path d="M224 150v212" stroke="#0ea5e9" stroke-width="24" stroke-linecap="round"/>
  <path d="M288 150v212" stroke="#0ea5e9" stroke-width="24" stroke-linecap="round"/>
  <path d="M256 214c-38 0-68-22-68-50s30-50 68-50 68 22 68 50-30 50-68 50Z" fill="#0ea5e9" opacity="0.16"/>
  <text x="256" y="306" text-anchor="middle" font-family="'Segoe UI', 'Helvetica Neue', Arial, sans-serif" font-size="136" font-weight="800" fill="#0f172a">R$</text>
</svg>
